<svg xmlns="http://www.w3.org/2000/svg" width="334.946" height="317.626" viewBox="0 0 334.946 317.626"><defs><style>.a{fill:#94abc6;}.b{fill:#fff;}.c{fill:#ccc;}.d{fill:#123e72;}.e{fill:#3f3d56;}.f{fill:#ffb8b8;}.g{fill:#2f2e41;}</style></defs><path class="a" d="M259.786,679.328l-2.95-11a156.883,156.883,0,0,0-16.028-5.437L240.436,668l-1.51-5.632c-6.755-1.826-11.35-2.629-11.35-2.629s6.206,22.316,19.226,39.377l15.17,2.52-11.785,1.607a59.3,59.3,0,0,0,5.27,5.281c18.938,16.62,40.033,24.246,47.115,17.032s-2.529-26.535-21.468-43.154c-5.871-5.152-13.246-9.287-20.629-12.542Z" transform="translate(-227.576 -411.756)"/><path class="a" d="M334.373,633.756l3.489-10.858a144.725,144.725,0,0,0-10.747-12.487L324,614.606l1.786-5.559c-4.785-4.862-8.28-7.8-8.28-7.8s-6.887,22.137-5.07,43.1l11.609,9.57-10.969-4.384a55.074,55.074,0,0,0,1.625,7.1c7.126,23.483,21.014,40.32,31.021,37.606s12.342-23.951,5.216-47.434c-2.209-7.28-6.262-14.424-10.8-20.818Z" transform="translate(-274.108 -378.133)"/><path class="a" d="M542.959,151.708h-1.84v-47.66c0-15.235-13.063-27.586-29.177-27.586h-106.8c-16.114,0-29.177,12.35-29.177,27.586V365.52c0,15.235,13.063,27.586,29.177,27.586h106.8c16.113,0,29.176-12.35,29.176-27.585V185.633h1.84Z" transform="translate(-309.235 -76.462)"/><path class="b" d="M522.972,93.335h-13.94a9.334,9.334,0,0,1-.994,9.156,10.526,10.526,0,0,1-8.592,4.328H438.26a10.526,10.526,0,0,1-8.591-4.327,9.334,9.334,0,0,1-.994-9.156H415.654c-12.034,0-21.789,9.223-21.789,20.6V375.028c0,11.377,9.755,20.6,21.789,20.6H522.972c12.034,0,21.789-9.223,21.789-20.6h0V113.935c0-11.377-9.755-20.6-21.788-20.6Z" transform="translate(-319.087 -86.161)"/><path class="c" d="M517.782,323.907a10.3,10.3,0,0,1,5.5-9,11.437,11.437,0,0,0-13.921,2.319,9.965,9.965,0,0,0,0,13.364,11.437,11.437,0,0,0,13.92,2.321A10.3,10.3,0,0,1,517.782,323.907Z" transform="translate(-381.232 -212.727)"/><path class="c" d="M548.519,323.907a10.3,10.3,0,0,1,5.5-9,11.437,11.437,0,0,0-13.92,2.319,9.965,9.965,0,0,0,0,13.364,11.437,11.437,0,0,0,13.92,2.322,10.3,10.3,0,0,1-5.5-9Z" transform="translate(-398.147 -212.727)"/><ellipse class="d" cx="10.995" cy="10.395" rx="10.995" ry="10.395" transform="translate(152.885 100.784)"/><path class="a" d="M551.636,326.533h-64.08a2.244,2.244,0,0,1-2.3-2.176V263.773a2.244,2.244,0,0,1,2.3-2.176h64.08a2.243,2.243,0,0,1,2.3,2.176v60.585A2.243,2.243,0,0,1,551.636,326.533Zm-64.08-64.065a1.346,1.346,0,0,0-1.381,1.305v60.585a1.346,1.346,0,0,0,1.381,1.305h64.08a1.346,1.346,0,0,0,1.38-1.305V263.773a1.346,1.346,0,0,0-1.38-1.305Z" transform="translate(-369.381 -182.885)"/><rect class="c" width="98.279" height="0.87" transform="translate(98.284 190.089)"/><ellipse class="d" cx="3.104" cy="2.934" rx="3.104" ry="2.934" transform="translate(98.284 178.786)"/><rect class="c" width="98.279" height="0.87" transform="translate(98.284 219.432)"/><ellipse class="d" cx="3.104" cy="2.934" rx="3.104" ry="2.934" transform="translate(98.284 208.13)"/><path class="d" d="M620.2,652.083H589.146a1.973,1.973,0,0,1-2.024-1.913V639.877a1.973,1.973,0,0,1,2.024-1.913H620.2a1.973,1.973,0,0,1,2.024,1.913v10.292A1.973,1.973,0,0,1,620.2,652.083Z" transform="translate(-425.44 -399.237)"/><ellipse class="d" cx="3.104" cy="2.934" rx="3.104" ry="2.934" transform="translate(108.408 178.786)"/><ellipse class="d" cx="3.104" cy="2.934" rx="3.104" ry="2.934" transform="translate(118.532 178.786)"/><ellipse class="d" cx="3.104" cy="2.934" rx="3.104" ry="2.934" transform="translate(108.408 208.13)"/><ellipse class="d" cx="3.104" cy="2.934" rx="3.104" ry="2.934" transform="translate(118.532 208.13)"/><path class="e" d="M572.992,822.138H250.125c-.691,0-1.251-.232-1.251-.518s.56-.518,1.251-.518H572.992c.691,0,1.251.232,1.251.518S573.683,822.138,572.992,822.138Z" transform="translate(-239.297 -504.512)"/><path class="f" d="M784.315,548.516a4.628,4.628,0,0,1,.634.335l20.169-8.139.72-5.023,8.059-.047-.476,11.521L786.8,553.819a4.366,4.366,0,0,1-.2.514,4.718,4.718,0,0,1-6.1,2.1,4.256,4.256,0,0,1-2.259-5.753,4.714,4.714,0,0,1,6.072-2.168Z" transform="translate(-530.388 -340.418)"/><path class="f" d="M627.024,707.838H621.51l-2.623-20.1h8.137Z" transform="translate(-340.584 -395.338)"/><path class="g" d="M607.77,731.518H618.4v6.329H601.076A6.52,6.52,0,0,1,607.77,731.518Z" transform="translate(-330.782 -420.507)"/><path class="f" d="M672.2,704.5l-5.487.511-4.7-19.765,8.1-.754Z" transform="translate(-364.319 -393.478)"/><path class="g" d="M6.578-.093,17.2-.037,17.241,6.3-.077,6.2h0A6.434,6.434,0,0,1,6.578-.093Z" transform="translate(291.781 311.159) rotate(-5.625)"/><ellipse class="f" cx="11.045" cy="10.442" rx="11.045" ry="10.442" transform="translate(276.93 153.062)"/><path class="g" d="M831.938,702.559a1.983,1.983,0,0,1-1.985-1.572c-2.854-14.976-12.181-63.946-12.4-65.3a.581.581,0,0,1-.007-.094v-3.651a.61.61,0,0,1,.125-.371l1.232-1.632a.675.675,0,0,1,.514-.266c7.025-.311,30.032-1.224,31.143.089h0c1.116,1.319.722,5.317.631,6.105l0,.082,10.336,62.5a1.934,1.934,0,0,1-1.671,2.183l-6.456,1.005a2.044,2.044,0,0,1-2.26-1.315c-2-6.032-8.692-26.325-11.013-34.177a.225.225,0,0,0-.248-.154.216.216,0,0,0-.193.213c.116,7.485.4,26.582.493,33.178l.01.71a1.965,1.965,0,0,1-1.84,1.929l-6.225.535C832.064,702.557,832,702.559,831.938,702.559Z" transform="translate(-552.243 -394.125)"/><path class="d" d="M833.66,493.94a8.749,8.749,0,0,0-3.743,5.1,45.972,45.972,0,0,0-2.2,11.547l-.7,11.734-8.659,31.109c7.5,6,11.834,4.639,21.936-.272s11.257,1.637,11.257,1.637l2.02-26.47,2.886-28.924a13.26,13.26,0,0,0-2.186-1.987,23.342,23.342,0,0,0-19.086-3.824Z" transform="translate(-552.695 -315.888)"/><path class="f" d="M838.354,560.708a4.879,4.879,0,0,1,.675.3l19.943-9.437.331-5.113,8.227-.536.441,11.655-26.651,8.332a4.63,4.63,0,0,1-3.972,3.41,4.8,4.8,0,0,1-4.779-2.306,4.271,4.271,0,0,1,.59-5.042,4.9,4.9,0,0,1,5.2-1.263Z" transform="translate(-560.201 -346.327)"/><path class="d" d="M889.857,507.65c4.907,1.637,5.771,19.376,5.771,19.376-5.772-3-12.7,1.91-12.7,1.91s-1.443-4.639-3.175-10.643a10.008,10.008,0,0,1,2.309-9.824S884.95,506.012,889.857,507.65Z" transform="translate(-586.235 -324.003)"/><path class="g" d="M864.36,444.09c-1.376-1.041-3.254.851-3.254.851l-1.1-9.368s-6.881.779-11.284-.26-5.092,3.773-5.092,3.773a31.6,31.6,0,0,1-.138-5.855c.275-2.342,3.853-4.684,10.183-6.245s9.633,5.2,9.633,5.2C867.712,434.272,865.736,445.13,864.36,444.09Z" transform="translate(-566.483 -277.824)"/></svg>